<svg width="100" height="100" viewBox="0 0 100 100" fill="none" xmlns="http://www.w3.org/2000/svg">
<g clip-path="url(#clip0_155_5)">
<rect width="100" height="100" rx="8" fill="white"/>
<rect width="100" height="100" fill="#2D2D2D"/>
<path d="M28.0714 12C19.2107 12 12 19.2089 12 28.0714V70.9286C12 79.7911 19.2107 87 28.0714 87H70.9286C79.7893 87 87 79.7911 87 70.9286V28.0714C87 19.2089 79.7893 12 70.9286 12H28.0714ZM28.0714 24.5C32.0107 24.5 35.2143 27.7036 35.2143 31.6429C35.2143 35.5821 32.0107 38.7857 28.0714 38.7857C24.1321 38.7857 20.9286 35.5821 20.9286 31.6429C20.9286 27.7036 24.1321 24.5 28.0714 24.5ZM28.0714 26.2857C25.1179 26.2857 22.7143 28.6893 22.7143 31.6429C22.7143 34.5964 25.1179 37 28.0714 37C31.025 37 33.4286 34.5964 33.4286 31.6429C33.4286 28.6893 31.025 26.2857 28.0714 26.2857ZM28.0714 28.0714C30.0446 28.0714 31.6429 29.6696 31.6429 31.6429C31.6429 33.6161 30.0446 35.2143 28.0714 35.2143C26.0982 35.2143 24.5 33.6161 24.5 31.6429C24.5 29.6696 26.0982 28.0714 28.0714 28.0714ZM42.3571 29.8571H74.5C75.4875 29.8571 76.2857 30.6554 76.2857 31.6429C76.2857 32.6304 75.4875 33.4286 74.5 33.4286H42.3571C41.3696 33.4286 40.5714 32.6304 40.5714 31.6429C40.5714 30.6554 41.3696 29.8571 42.3571 29.8571ZM28.0714 42.3571C32.0107 42.3571 35.2143 45.5607 35.2143 49.5C35.2143 53.4393 32.0107 56.6429 28.0714 56.6429C24.1321 56.6429 20.9286 53.4393 20.9286 49.5C20.9286 45.5607 24.1321 42.3571 28.0714 42.3571ZM28.0714 44.1429C25.1179 44.1429 22.7143 46.5464 22.7143 49.5C22.7143 52.4536 25.1179 54.8571 28.0714 54.8571C31.025 54.8571 33.4286 52.4536 33.4286 49.5C33.4286 46.5464 31.025 44.1429 28.0714 44.1429ZM28.0714 45.9286C30.0446 45.9286 31.6429 47.5268 31.6429 49.5C31.6429 51.4732 30.0446 53.0714 28.0714 53.0714C26.0982 53.0714 24.5 51.4732 24.5 49.5C24.5 47.5268 26.0982 45.9286 28.0714 45.9286ZM42.3571 47.7143H74.5C75.4875 47.7143 76.2857 48.5125 76.2857 49.5C76.2857 50.4875 75.4875 51.2857 74.5 51.2857H42.3571C41.3696 51.2857 40.5714 50.4875 40.5714 49.5C40.5714 48.5125 41.3696 47.7143 42.3571 47.7143ZM28.0714 60.2143C32.0107 60.2143 35.2143 63.4179 35.2143 67.3571C35.2143 71.2964 32.0107 74.5 28.0714 74.5C24.1321 74.5 20.9286 71.2964 20.9286 67.3571C20.9286 63.4179 24.1321 60.2143 28.0714 60.2143ZM28.0714 62C25.1179 62 22.7143 64.4036 22.7143 67.3571C22.7143 70.3107 25.1179 72.7143 28.0714 72.7143C31.025 72.7143 33.4286 70.3107 33.4286 67.3571C33.4286 64.4036 31.025 62 28.0714 62ZM28.0714 63.7857C30.0446 63.7857 31.6429 65.3839 31.6429 67.3571C31.6429 69.3304 30.0446 70.9286 28.0714 70.9286C26.0982 70.9286 24.5 69.3304 24.5 67.3571C24.5 65.3839 26.0982 63.7857 28.0714 63.7857ZM42.3571 65.5714H74.5C75.4875 65.5714 76.2857 66.3696 76.2857 67.3571C76.2857 68.3446 75.4875 69.1429 74.5 69.1429H42.3571C41.3696 69.1429 40.5714 68.3446 40.5714 67.3571C40.5714 66.3696 41.3696 65.5714 42.3571 65.5714Z" fill="#AFA0FF"/>
</g>
<defs>
<clipPath id="clip0_155_5">
<rect width="100" height="100" rx="8" fill="white"/>
</clipPath>
</defs>
</svg>
